<svg id="Layer_1" enable-background="new 0 0 512 512" height="512" viewBox="0 0 512 512" width="512" xmlns="http://www.w3.org/2000/svg"><g><path d="m256 0-20 91.353 20 83.917c44.515 0 80.73 36.216 80.73 80.73s-36.215 80.73-80.73 80.73l-20 112.134c55.296-.002 183.335-31.635 212.048-23.612 39.795-45.12 63.952-104.361 63.952-169.252 0-141.385-114.615-256-256-256z" fill="#99481f"/><path d="m175.27 256c0-44.515 36.215-80.73 80.73-80.73v-175.27c-141.385 0-256 114.615-256 256 0 64.891 24.157 124.132 63.952 169.252 28.711-8.023 192.047 23.612 192.048 23.612v-112.134c-44.515 0-80.73-36.215-80.73-80.73z" fill="#b36b24"/><circle cx="256" cy="256" fill="none" r="80.73"/><path d="m101.444 153.011h53.112v30h-53.112z" fill="#f66" transform="matrix(.707 -.707 .707 .707 -81.312 139.719)"/><path d="m394.095 236.928h53.112v30h-53.112z" fill="#ffe666" transform="matrix(.707 -.707 .707 .707 -54.934 371.234)"/><path d="m152.958 76.353h31.867v30h-31.867z" fill="#ffe666"/><path d="m394.095 320.668h31.867v30h-31.867z" fill="#f66"/><path d="m50.629 232.419h53.112v30h-53.112z" fill="#69f"/><path d="m378.158 158.146h53.112v30h-53.112z" fill="#e6e6f2"/><path d="m332.353 74.357h30v53.112h-30z" fill="#69f" transform="matrix(.707 -.707 .707 .707 30.382 275.174)"/><path d="m88.911 300.272h30v53.112h-30z" fill="#fff5f5" transform="matrix(.707 -.707 .707 .707 -200.668 169.204)"/><path d="m366.597 398.621c-55.299 0-55.301 30.241-110.597 30.243l-20 39.919 20 43.217c76.493 0 145.138-33.561 192.048-86.748-28.713-8.022-38.068-26.631-81.451-26.631z" fill="#ffbf80"/><path d="m255.995 428.864c-55.298 0-55.298-30.243-110.596-30.243-43.381 0-52.737 18.608-81.448 26.631 46.911 53.187 115.555 86.748 192.049 86.748v-83.136c-.002 0-.003 0-.005 0z" fill="#fd9"/><path d="m286 115.913h-30l-10-15 10-15h30z" fill="#24b383"/><path d="m226 85.913h30v30h-30z" fill="#2ee66b"/></g></svg>