<?xml version="1.0"?>
<svg xmlns="http://www.w3.org/2000/svg" viewBox="0 0 48 48" width="512" height="512"><g id="Layer_6" data-name="Layer 6"><path d="M24,.75A23.25,23.25,0,1,0,47.25,24,23.25,23.25,0,0,0,24,.75Zm0,31.031A7.781,7.781,0,1,1,31.781,24,7.781,7.781,0,0,1,24,31.781Z" style="fill:#6c3e16"/><path d="M24,.75a23.184,23.184,0,0,0-16.913,7.3A23.25,23.25,0,0,0,42.33,38.3,23.251,23.251,0,0,0,24,.75Zm6.555,27.444A7.781,7.781,0,1,1,18.862,18.157,7.781,7.781,0,1,1,30.555,28.194Z" style="fill:#754316"/><path d="M42.46,25.513a3.221,3.221,0,0,1,0-2.288l.414-1.087a5.776,5.776,0,0,0-2.239-6.892l-.974-.636a3.213,3.213,0,0,1-1.344-1.851l-.844-3.115a3.212,3.212,0,0,0-3.261-2.37l-3.224.161a3.211,3.211,0,0,1-2.175-.707L26.3,4.7a3.212,3.212,0,0,0-4.031,0L19.754,6.728a3.211,3.211,0,0,1-2.175.707l-1.035-.052a5.934,5.934,0,0,0-6.023,4.376h0a5.933,5.933,0,0,1-2.483,3.418h0a5.932,5.932,0,0,0-2.3,7.08l.369.968a3.221,3.221,0,0,1,0,2.288l-1.15,3.016A3.214,3.214,0,0,0,6.2,32.363l2.7,1.765a3.211,3.211,0,0,1,1.344,1.85l.3,1.1a5.809,5.809,0,0,0,5.9,4.284l1.136-.056a3.206,3.206,0,0,1,2.175.707l.885.713a5.812,5.812,0,0,0,7.289,0l.885-.713a3.206,3.206,0,0,1,2.175-.707l3.224.16a3.211,3.211,0,0,0,3.261-2.369l.844-3.116a3.211,3.211,0,0,1,1.344-1.85l.974-.636A5.776,5.776,0,0,0,42.874,26.6ZM24,31.781A7.781,7.781,0,1,1,31.781,24,7.781,7.781,0,0,1,24,31.781Z" style="fill:#f8ac31"/><path d="M41.864,32.411a5.774,5.774,0,0,0,1.01-5.812l-.414-1.086a3.221,3.221,0,0,1,0-2.288l.414-1.087a5.776,5.776,0,0,0-2.239-6.892l-.974-.636a3.213,3.213,0,0,1-1.344-1.851l-.844-3.115a3.212,3.212,0,0,0-3.261-2.37l-3.224.161a3.211,3.211,0,0,1-2.175-.707L26.3,4.7a3.212,3.212,0,0,0-4.031,0L19.754,6.728a3.211,3.211,0,0,1-2.175.707l-1.035-.052a5.919,5.919,0,0,0-3.378.856,5.926,5.926,0,0,0-1.228,2.317h0a5.933,5.933,0,0,1-2.483,3.418h0q-.091.06-.18.123a5.931,5.931,0,0,1-1.056.955,5.934,5.934,0,0,0-1.064,6l.369.968a3.221,3.221,0,0,1,0,2.288l-1.15,3.016A3.214,3.214,0,0,0,7.62,31.16l2.7,1.765a3.211,3.211,0,0,1,1.344,1.85l.3,1.1a5.809,5.809,0,0,0,5.9,4.284L19,40.1a3.206,3.206,0,0,1,2.175.707l.885.713a5.812,5.812,0,0,0,7.289,0l.885-.713a3.206,3.206,0,0,1,2.175-.707l3.224.16A3.2,3.2,0,0,0,37.071,40a3.2,3.2,0,0,0,.4-.9l.844-3.116a3.211,3.211,0,0,1,1.344-1.85l.542-.354a3.2,3.2,0,0,1,.875-.849ZM29.705,29.29a7.781,7.781,0,1,1-9.993-11.783A7.781,7.781,0,1,1,29.705,29.29Z" style="fill:#ffc34b"/></g><g id="outline"><path d="M24,0A24,24,0,1,0,48,24,24.028,24.028,0,0,0,24,0Zm0,46.5A22.5,22.5,0,1,1,46.5,24,22.526,22.526,0,0,1,24,46.5Z"/><path d="M15.469,24a8.531,8.531,0,1,0,15.588-4.8.75.75,0,0,0-1.241.844,7.033,7.033,0,1,1-1.711-1.757.75.75,0,0,0,.877-1.217A8.531,8.531,0,0,0,15.469,24Z"/><path d="M43.161,25.246a2.468,2.468,0,0,1,0-1.755l.414-1.086a6.562,6.562,0,0,0-2.53-7.787l-.974-.636a2.46,2.46,0,0,1-1.031-1.419L38.2,9.447a4.012,4.012,0,0,0-4.022-2.922l-3.225.161a2.466,2.466,0,0,1-1.667-.541L26.77,4.119a3.988,3.988,0,0,0-4.973,0L19.283,6.145a2.445,2.445,0,0,1-1.667.541l-1.035-.051A6.7,6.7,0,0,0,9.8,11.562a5.189,5.189,0,0,1-2.17,2.987,6.723,6.723,0,0,0-2.592,7.975l.369.967a2.468,2.468,0,0,1,0,1.755L4.256,28.263A3.984,3.984,0,0,0,5.793,32.99l2.7,1.766a2.454,2.454,0,0,1,1.031,1.419.75.75,0,0,0,1.448-.393A3.956,3.956,0,0,0,9.315,33.5l-2.7-1.766A2.476,2.476,0,0,1,5.658,28.8l1.15-3.017a3.977,3.977,0,0,0,0-2.822l-.37-.967a5.213,5.213,0,0,1,2.01-6.185,6.684,6.684,0,0,0,2.8-3.85,5.25,5.25,0,0,1,5.262-3.822l1.034.051a3.873,3.873,0,0,0,2.684-.872l2.513-2.025a2.478,2.478,0,0,1,3.09,0l2.515,2.025a3.914,3.914,0,0,0,2.682.872l3.224-.161a2.479,2.479,0,0,1,2.5,1.816l.843,3.117a3.96,3.96,0,0,0,1.658,2.282l.974.636a5.054,5.054,0,0,1,1.948,6l-.414,1.087a3.963,3.963,0,0,0,0,2.821l.414,1.088a5.054,5.054,0,0,1-1.948,6l-.974.636a3.959,3.959,0,0,0-1.658,2.282L36.75,38.9a2.469,2.469,0,0,1-2.5,1.818l-3.224-.161a3.977,3.977,0,0,0-2.683.872l-.885.713a5.089,5.089,0,0,1-6.347,0l-.885-.713a3.967,3.967,0,0,0-2.683-.872l-1.136.056A5.052,5.052,0,0,1,11.573,37.7a.75.75,0,0,0-1.359.637,6.519,6.519,0,0,0,6.266,3.767l1.136-.056a2.462,2.462,0,0,1,1.667.542l.886.713a6.6,6.6,0,0,0,8.229,0l.885-.713a2.456,2.456,0,0,1,1.668-.542l3.224.161A4,4,0,0,0,38.2,39.29l.843-3.115a2.454,2.454,0,0,1,1.031-1.419l.974-.636a6.562,6.562,0,0,0,2.53-7.787Z"/><path d="M29.729,14.18a.75.75,0,0,0,0-1.5H27.806a.75.75,0,0,0,0,1.5Z"/><path d="M7.825,20.005H9.747a.75.75,0,0,0,0-1.5H7.825a.75.75,0,1,0,0,1.5Z"/><path d="M23.1,9.034a.718.718,0,0,0,.27-.051l1.793-.693a.75.75,0,1,0-.541-1.4l-1.793.693A.75.75,0,0,0,23.1,9.034Z"/><path d="M13.39,14.473l-1.793.693a.75.75,0,0,0,.27,1.449.719.719,0,0,0,.271-.051l1.793-.693a.75.75,0,0,0-.541-1.4Z"/><path d="M22.005,11.288a.749.749,0,0,0,.4.983l1.771.748a.736.736,0,0,0,.292.059.75.75,0,0,0,.292-1.44l-1.771-.748A.748.748,0,0,0,22.005,11.288Z"/><path d="M41.074,20.3a.75.75,0,0,0-.4-.983L38.9,18.563a.751.751,0,0,0-.584,1.383l1.772.748a.751.751,0,0,0,.983-.4Z"/><path d="M17.208,10.081l-1.921-.073a.728.728,0,0,0-.777.721.748.748,0,0,0,.72.777l1.921.073h.03a.75.75,0,0,0,.027-1.5Z"/><path d="M13.052,22.83a.749.749,0,0,0,.733-.6l.386-1.883a.75.75,0,0,0-1.469-.3l-.386,1.884a.749.749,0,0,0,.584.884A.721.721,0,0,0,13.052,22.83Z"/><path d="M18.2,12.72a.761.761,0,0,0-.881.592L16.946,15.2a.752.752,0,0,0,.592.881.811.811,0,0,0,.146.014.75.75,0,0,0,.735-.606l.369-1.885A.75.75,0,0,0,18.2,12.72Z"/><path d="M33.714,10.058a.756.756,0,0,0-.881.591l-.37,1.886a.751.751,0,0,0,.592.881.8.8,0,0,0,.145.014.751.751,0,0,0,.736-.606l.37-1.886A.751.751,0,0,0,33.714,10.058Z"/><path d="M10.775,26.327a.749.749,0,0,0,.165-1.048L9.81,23.725a.75.75,0,0,0-1.213.882l1.131,1.555a.748.748,0,0,0,1.047.165Z"/><path d="M25.376,41.366a.75.75,0,1,0,1.213-.883l-1.131-1.555a.75.75,0,0,0-1.213.883Z"/><path d="M7.12,30.405l1.615,1.043a.75.75,0,0,0,.815-1.26L7.935,29.146a.75.75,0,1,0-.815,1.259Z"/><path d="M18.62,35.3l-.191,1.912a.748.748,0,0,0,.672.82.617.617,0,0,0,.075,0,.749.749,0,0,0,.745-.676l.191-1.912A.75.75,0,0,0,18.62,35.3Z"/><path d="M13.7,34.815a.749.749,0,0,0,1.045-.179l1.109-1.571a.75.75,0,0,0-1.225-.865l-1.108,1.571A.748.748,0,0,0,13.7,34.815Z"/><path d="M15.908,36.269l-1.75.794a.75.75,0,0,0,.311,1.433.74.74,0,0,0,.31-.067l1.75-.8a.75.75,0,0,0-.621-1.365Z"/><path d="M11.213,29.924a.75.75,0,0,0,1,.363l1.743-.81a.75.75,0,0,0-.633-1.36l-1.743.811A.749.749,0,0,0,11.213,29.924Z"/><path d="M39.287,26.637a.749.749,0,0,0-.51.929l.538,1.846a.751.751,0,0,0,.72.54.767.767,0,0,0,.21-.03.749.749,0,0,0,.51-.93l-.538-1.846A.748.748,0,0,0,39.287,26.637Z"/><path d="M34.709,35.688a.745.745,0,0,0,.573-.266l1.239-1.471a.75.75,0,0,0-1.147-.967l-1.238,1.471a.749.749,0,0,0,.573,1.233Z"/><path d="M25.461,36.528a.75.75,0,0,0,.156-1.483l-1.879-.4a.75.75,0,0,0-.314,1.466l1.879.4A.763.763,0,0,0,25.461,36.528Z"/><path d="M29.721,38.377l1.828.6a.75.75,0,0,0,.465-1.426l-1.828-.6a.75.75,0,1,0-.465,1.426Z"/><path d="M29.469,35.33a.751.751,0,0,0,.75-.739l.026-1.922a.75.75,0,0,0-.739-.761H29.5a.751.751,0,0,0-.75.739l-.026,1.922a.75.75,0,0,0,.739.761Z"/><path d="M35.307,16.567H33.384a.75.75,0,0,0,0,1.5h1.923a.75.75,0,0,0,0-1.5Z"/><path d="M37.064,23.559,35.935,22a.75.75,0,1,0-1.213.883l1.13,1.554a.749.749,0,1,0,1.212-.882Z"/><path d="M34.467,29.866l1.743-.81a.75.75,0,0,0-.633-1.36l-1.743.811a.75.75,0,1,0,.633,1.359Z"/></g></svg>
