<svg id="Capa_1" enable-background="new 0 0 497 497" height="512" viewBox="0 0 497 497" width="512" xmlns="http://www.w3.org/2000/svg"><g><path d="m248.5 15.336c-131.596 0-238.276 106.68-238.276 238.276s106.68 238.276 238.276 238.276 238.276-106.68 238.276-238.276-106.68-238.276-238.276-238.276zm0 322.323c-46.418 0-84.047-37.629-84.047-84.047s37.629-84.047 84.047-84.047 84.047 37.629 84.047 84.047-37.629 84.047-84.047 84.047z" fill="#ffca8a"/><path d="m51.756 229.853c0-64.703 22.556-124.268 60.413-171.667-61.627 43.071-101.945 114.535-101.945 195.426 0 127.849 100.694 232.169 227.1 238.007-108.455-40.017-185.568-142.112-185.568-261.766z" fill="#ffbe73"/><path d="m424.21 77.902c-46.932-46.942-109.338-72.79-175.71-72.79s-128.778 25.848-175.71 72.79c-46.942 46.932-72.79 109.339-72.79 175.71 0 .988.006 1.976.017 2.962.163 14.078 7.8 27.005 20.097 33.861l6.744 3.76c11.853 6.608 26.282 6.608 38.135 0l6.411-3.574c11.853-6.608 26.282-6.608 38.135 0l6.411 3.574c11.853 6.608 26.279 6.61 38.132.002.221-.123.443-.247.665-.371 12.977-7.235 20.883-21.198 20.043-36.032-.078-1.384-.118-2.778-.118-4.182 0-41.901 35.089-75.762 77.426-73.741 37.026 1.768 67.293 31.254 70.024 68.222.228 3.087.263 6.137.116 9.139-.736 15.043 6.861 29.262 20.016 36.595.221.124.443.247.663.37 11.853 6.608 26.279 6.607 38.132-.002l6.411-3.574c11.853-6.608 26.282-6.608 38.135 0l6.411 3.574c11.853 6.608 26.282 6.608 38.135 0l6.744-3.76c12.297-6.856 19.934-19.784 20.097-33.861.011-.987.017-1.974.017-2.962.001-66.371-25.847-128.778-72.789-175.71z" fill="#e27858"/><g><g><g><ellipse cx="148.061" cy="402.187" fill="#ff8997" rx="29.513" ry="37.06" transform="matrix(.002 -1 1 .002 -254.449 549.367)"/></g><g><ellipse cx="348.939" cy="402.627" fill="#ff8997" rx="29.513" ry="37.06" transform="matrix(.002 -1 1 .002 -54.451 750.683)"/></g></g></g><g fill="#423e4f"><path d="m170.016 357.644c-4.143 0-7.5 3.358-7.5 7.5v15.061c0 4.142 3.357 7.5 7.5 7.5s7.5-3.358 7.5-7.5v-15.061c0-4.142-3.358-7.5-7.5-7.5z"/><path d="m326.768 357.644c-4.143 0-7.5 3.358-7.5 7.5v15.061c0 4.142 3.357 7.5 7.5 7.5s7.5-3.358 7.5-7.5v-15.061c0-4.142-3.358-7.5-7.5-7.5z"/><path d="m284.905 381.684c-4.143 0-7.5 3.358-7.5 7.5 0 5.869-4.774 10.643-10.643 10.643s-10.643-4.774-10.643-10.643c0-4.142-3.357-7.5-7.5-7.5s-7.5 3.358-7.5 7.5c0 5.869-4.774 10.643-10.643 10.643s-10.643-4.774-10.643-10.643c0-4.142-3.357-7.5-7.5-7.5s-7.5 3.358-7.5 7.5c0 14.14 11.503 25.643 25.643 25.643 7.08 0 13.498-2.884 18.143-7.539 4.645 4.655 11.063 7.539 18.143 7.539 14.14 0 25.643-11.503 25.643-25.643 0-4.142-3.357-7.5-7.5-7.5z"/></g><g><path d="m69.559 236.396c-6.985-6.985-6.985-18.309 0-25.295l22.434-22.434c6.985-6.985 18.309-6.985 25.295 0 6.985 6.985 6.985 18.309 0 25.295l-22.434 22.434c-6.984 6.984-18.309 6.985-25.295 0z" fill="#f9ed80"/></g><g><path d="m427.441 236.396c6.985-6.985 6.985-18.309 0-25.295l-22.434-22.434c-6.985-6.985-18.309-6.985-25.295 0-6.985 6.985-6.985 18.309 0 25.295l22.434 22.434c6.984 6.984 18.309 6.985 25.295 0z" fill="#ffb3dd"/></g><g><path d="m224.636 95.27c-6.985-6.985-6.985-18.309 0-25.295l22.434-22.434c6.985-6.985 18.309-6.985 25.295 0 6.985 6.985 6.985 18.309 0 25.295l-22.435 22.434c-6.984 6.984-18.308 6.985-25.294 0z" fill="#9ae0eb"/></g><g><path d="m164.209 144.163c-6.985 6.985-18.309 6.985-25.295 0l-22.434-22.434c-6.985-6.985-6.985-18.309 0-25.295 6.985-6.985 18.309-6.985 25.295 0l22.434 22.434c6.985 6.985 6.985 18.309 0 25.295z" fill="#60d9a7"/></g><g><path d="m332.791 144.163c6.985 6.985 18.309 6.985 25.295 0l22.434-22.434c6.985-6.985 6.985-18.309 0-25.295-6.985-6.985-18.309-6.985-25.295 0l-22.434 22.434c-6.985 6.985-6.985 18.309 0 25.295z" fill="#f9ed80"/></g><path d="m51.756 229.853c0-77.296 32.176-147.271 84.194-197.917-23.044 11.731-44.347 27.149-63.16 45.966-46.942 46.932-72.79 109.339-72.79 175.71 0 .988.006 1.976.017 2.962.163 14.078 7.8 27.005 20.097 33.861l6.744 3.76c10.228 5.703 22.372 6.472 33.126 2.333-5.363-21.37-8.228-43.695-8.228-66.675z" fill="#dc6742"/></g></svg>