<?xml version="1.0" encoding="iso-8859-1"?>
<!-- Generator: Adobe Illustrator 19.0.0, SVG Export Plug-In . SVG Version: 6.00 Build 0)  -->
<svg version="1.1" id="Capa_1" xmlns="http://www.w3.org/2000/svg" xmlns:xlink="http://www.w3.org/1999/xlink" x="0px" y="0px"
	 viewBox="0 0 512 512" style="enable-background:new 0 0 512 512;" xml:space="preserve">
<path style="fill:#F3B562;" d="M256,7.5C118.757,7.5,7.5,118.757,7.5,256S118.757,504.5,256,504.5S504.5,393.243,504.5,256
	S393.243,7.5,256,7.5z M256,350.967c-50.81,0-92-41.19-92-92s41.19-92,92-92s92,41.19,92,92S306.81,350.967,256,350.967z"/>
<path style="fill:#EFA143;" d="M256,7.5c-5.038,0-10.036,0.168-15,0.464C371.256,15.721,474.5,123.795,474.5,256
	S371.256,496.279,241,504.036c4.964,0.296,9.962,0.464,15,0.464c137.243,0,248.5-111.257,248.5-248.5S393.243,7.5,256,7.5z"/>
<path style="fill:#BC7458;" d="M474.26,297.7c-4.33-19.07-24.22-30.48-32.03-48.38c-9.82-22.5,1.6-48.87-2.88-73.04
	c-5.56-30-9.98-51.58-47.35-72.61c-16.9-9.5-41.74-3.88-50.26-8.16c-18.46-9.26-23.78-14.62-38.48-29.2
	c-31.3-31.03-54.07-14.97-66.05-10.96c-26.91,9.01-56.32,0.62-83.7,7.28c-23.36,5.69-43.82,22.48-54.1,44.41
	c-6.44,13.75-9.06,29.26-17,42.18c-7.87,12.81-20.41,22.13-28.44,34.84c-12.98,20.58-11.89,48.89,1.6,69.12
	c5.41,8.13,12.55,14.98,17.76,23.24c7.34,11.62,10.54,25.85,8.88,39.54c-1.04,8.62-3.94,17.04-3.82,25.72
	c0.19,12.97,7,24.77,13.62,35.89c7.93,13.33,16.19,27.02,28.61,36.22c21.84,16.16,51.33,15.06,77.51,22.01
	c41.48,11.02,79.15,43.47,121.59,37.28c14.53-2.12,28.35-8.96,38.91-19.25c16.91-16.49,24.64-40.35,39.42-58.81
	c15.84-19.79,38.85-32.29,56.88-50.06C467.57,332.5,478.2,315.07,474.26,297.7z M164,258.97c0-50.81,41.19-92,92-92s92,41.19,92,92
	s-41.19,92-92,92S164,309.78,164,258.97z"/>
<path style="fill:#9B6656;" d="M256.67,133.69c-67.56,0-122.32,54.76-122.32,122.31s54.76,122.31,122.32,122.31
	c67.55,0,122.31-54.76,122.31-122.31S324.22,133.69,256.67,133.69z M256,350.97c-50.81,0-92-41.19-92-92s41.19-92,92-92
	s92,41.19,92,92S306.81,350.97,256,350.97z"/>
<g>
	<path style="fill:#FFCCC4;" d="M102.838,186.658l-27.581-11.801c-7.616-3.259-11.149-12.075-7.89-19.691l0,0
		c3.259-7.616,12.075-11.149,19.691-7.89l27.581,11.801c7.616,3.259,11.149,12.075,7.89,19.691l0,0
		C119.271,186.384,110.455,189.917,102.838,186.658z"/>
	<path style="fill:#FFCCC4;" d="M364.909,422.126l-12.561-27.244c-3.469-7.523-0.182-16.434,7.342-19.902l0,0
		c7.523-3.469,16.434-0.182,19.902,7.342l12.561,27.244c3.469,7.523,0.182,16.434-7.342,19.902l0,0
		C377.288,432.936,368.377,429.649,364.909,422.126z"/>
	<path style="fill:#FFCCC4;" d="M445.206,223.856l-29.748,3.883c-8.215,1.072-15.743-4.718-16.815-12.932l0,0
		c-1.072-8.215,4.718-15.743,12.932-16.815l29.748-3.883c8.215-1.072,15.743,4.718,16.815,12.932l0,0
		C459.21,215.256,453.42,222.784,445.206,223.856z"/>
	<path style="fill:#FFCCC4;" d="M222.124,128.189l-29.748,3.883c-8.215,1.072-15.743-4.718-16.815-12.932l0,0
		c-1.072-8.215,4.718-15.743,12.932-16.815l29.748-3.883c8.215-1.072,15.743,4.718,16.815,12.932l0,0
		C236.129,119.588,230.339,127.117,222.124,128.189z"/>
	<path style="fill:#FFCCC4;" d="M358.123,89.249l-10.804,27.987c-2.983,7.728-11.667,11.575-19.395,8.592l0,0
		c-7.728-2.983-11.575-11.667-8.592-19.395l10.804-27.987c2.983-7.728,11.667-11.575,19.395-8.592l0,0
		C357.259,72.837,361.106,81.521,358.123,89.249z"/>
	<path style="fill:#FFCCC4;" d="M232.842,414.984l-2.834,29.866c-0.783,8.247-8.103,14.299-16.35,13.516l0,0
		c-8.247-0.783-14.298-8.103-13.516-16.35l2.834-29.866c0.783-8.247,8.103-14.299,16.35-13.516l0,0
		C227.574,399.417,233.625,406.737,232.842,414.984z"/>
	<path style="fill:#FFCCC4;" d="M416.191,290.946l-2.834,29.866c-0.783,8.247-8.103,14.298-16.35,13.516l0,0
		c-8.247-0.783-14.298-8.103-13.516-16.35l2.834-29.866c0.783-8.247,8.103-14.298,16.35-13.516l0,0
		C410.923,275.378,416.974,282.698,416.191,290.946z"/>
	<path style="fill:#FFCCC4;" d="M122.11,372.613l-26.753,13.574c-7.388,3.748-16.415,0.798-20.164-6.589l0,0
		c-3.748-7.388-0.798-16.415,6.589-20.164l26.753-13.574c7.388-3.748,16.415-0.798,20.164,6.589l0,0
		C132.447,359.836,129.497,368.864,122.11,372.613z"/>
</g>
<path d="M418.063,57.82c-3.204-2.623-7.93-2.154-10.554,1.052c-2.624,3.205-2.153,7.93,1.052,10.554
	C464.765,115.44,497,183.444,497,256c0,64.374-25.068,124.894-70.588,170.413C380.894,471.932,320.373,497,256,497
	c-64.374,0-124.894-25.068-170.413-70.587S15,320.374,15,256S40.068,131.106,85.587,85.587S191.626,15,256,15
	c44.122,0,87.276,12.029,124.797,34.786c3.542,2.148,8.154,1.019,10.303-2.523c2.147-3.542,1.018-8.154-2.523-10.302
	C348.709,12.781,302.865,0,256,0C187.62,0,123.333,26.629,74.98,74.98C26.629,123.333,0,187.62,0,256s26.629,132.667,74.98,181.02
	C123.333,485.371,187.62,512,256,512s132.667-26.629,181.02-74.98C485.371,388.667,512,324.38,512,256
	C512,178.929,477.761,106.695,418.063,57.82z"/>
<path d="M355.5,258.967c0-0.857-0.011-1.712-0.032-2.564c-1.148-45.163-32.539-82.942-74.63-93.798
	c-7.942-2.048-16.265-3.138-24.837-3.138s-16.895,1.09-24.837,3.138c-42.092,10.855-73.482,48.635-74.63,93.798
	c-0.022,0.852-0.032,1.707-0.032,2.564c0,54.864,44.636,99.5,99.5,99.5S355.5,313.831,355.5,258.967z M256,343.467
	c-46.593,0-84.5-37.907-84.5-84.5s37.907-84.5,84.5-84.5c46.594,0,84.5,37.907,84.5,84.5S302.594,343.467,256,343.467z"/>
<path d="M461.1,222.699c3.663-4.764,5.253-10.669,4.475-16.629c-0.777-5.959-3.829-11.259-8.594-14.923
	c-2.718-2.09-5.813-3.478-9.071-4.163c-0.102-4.373-0.489-8.318-1.185-12.071c-5.445-29.386-10.148-54.764-51.049-77.781
	c-9.361-5.261-20.21-6.515-29.968-6.928c3.281-11.112-2.479-23.102-13.474-27.347c-11.36-4.386-24.137,1.107-28.831,12.256
	c-4.189-3.545-8.436-7.755-14.367-13.639l-0.494-0.49c-30.787-30.522-55.652-20.164-69.008-14.599
	c-1.826,0.761-3.402,1.417-4.703,1.853c-13.229,4.429-27.341,4.269-42.278,4.1c-13.371-0.151-27.198-0.308-40.815,3.004
	c-25.712,6.263-47.812,24.399-59.117,48.517c-2.861,6.11-4.98,12.438-7.031,18.557c-1.908,5.694-3.74,11.135-6.061,16.211
	c-2.283,0.168-4.552,0.677-6.738,1.553c-5.579,2.235-9.953,6.51-12.317,12.035c-1.864,4.357-2.237,8.981-1.356,13.307
	c-4.055,4.445-8.079,9.124-11.489,14.537c-8.415,13.341-11.852,29.867-9.678,46.534c0.493,3.779,3.717,6.531,7.428,6.531
	c0.323,0,0.65-0.021,0.979-0.064c4.107-0.536,7.003-4.3,6.467-8.407c-1.723-13.208,0.938-26.203,7.494-36.597
	c2.025-3.216,4.46-6.27,7.031-9.228c1.489,1.158,3.146,2.147,4.959,2.923l27.582,11.801c2.877,1.231,5.872,1.813,8.82,1.813
	c8.738,0,17.067-5.12,20.717-13.649c4.88-11.406-0.429-24.656-11.835-29.537l-23.265-9.954c2.107-4.991,3.819-10.073,5.485-15.045
	c2.004-5.981,3.897-11.631,6.392-16.958c9.254-19.741,28.062-35.186,49.081-40.306c11.784-2.866,24.08-2.728,37.099-2.58
	c15.524,0.178,31.581,0.358,47.21-4.875c1.81-0.606,3.704-1.395,5.709-2.23c12.236-5.098,28.993-12.079,52.679,11.403l0.492,0.488
	c7.752,7.689,13.055,12.945,19.248,17.662l-5.384,13.946c-4.468,11.574,1.313,24.625,12.888,29.093
	c2.655,1.025,5.388,1.511,8.077,1.511c9.033,0,17.573-5.479,21.017-14.398l5.753-14.902c9.3,0.21,20.328,0.718,28.252,5.171
	c34.783,19.574,38.313,38.616,43.654,67.442c0.564,3.04,0.872,6.306,0.944,9.994l-22.315,2.913c-5.96,0.778-11.26,3.83-14.924,8.594
	c-3.663,4.764-5.253,10.67-4.475,16.629c1.478,11.318,11.173,19.589,22.295,19.589c0.966,0,1.944-0.063,2.928-0.191l14.442-1.885
	c0.547,7.147,2.005,13.336,4.486,19.028c3.932,9.012,10.246,16.213,16.353,23.178c6.813,7.771,13.249,15.111,15.236,23.863
	c3.887,17.131-10.79,33.861-17.28,40.259c-7.173,7.07-15.107,13.221-23.509,19.733c-11.871,9.202-24.146,18.718-33.965,30.985
	c-0.135,0.169-0.27,0.351-0.405,0.522l-5.384-11.678c-2.517-5.458-7.007-9.609-12.646-11.689c-5.639-2.081-11.75-1.84-17.208,0.677
	c-11.267,5.195-16.206,18.587-11.011,29.853l12.56,27.244c1.602,3.474,4.008,6.411,6.996,8.629
	c-3.274,4.973-7.096,10.067-11.698,14.564c-9.439,9.199-21.783,15.307-34.759,17.2c-8.884,1.296-18.12,0.794-28.232-1.535
	c-4.033-0.93-8.063,1.589-8.992,5.625c-0.93,4.036,1.589,8.062,5.625,8.992c7.597,1.75,14.824,2.62,21.844,2.62
	c4.032,0,7.996-0.287,11.922-0.86c16.081-2.346,31.374-9.911,43.068-21.307c6.785-6.629,12.096-14.278,16.205-20.897
	c2.69-0.186,5.353-0.857,7.876-2.02c5.457-2.516,9.608-7.007,11.688-12.646c2.076-5.63,1.838-11.73-0.667-17.181
	c1.661-2.456,3.292-4.694,4.932-6.745c8.703-10.873,19.748-19.435,31.441-28.5c8.377-6.494,17.04-13.21,24.848-20.905
	c10.282-10.135,26.733-30.662,21.379-54.262c-2.829-12.462-10.84-21.598-18.586-30.432c-5.597-6.383-10.884-12.412-13.882-19.285
	c-1.882-4.316-2.972-9.175-3.344-14.975l0.414-0.054C452.136,230.516,457.436,227.463,461.1,222.699z M115.701,170.078
	c0.745,1.859,0.722,3.897-0.067,5.74c-0.788,1.842-2.246,3.267-4.105,4.012c-1.859,0.744-3.897,0.722-5.74-0.067l-27.582-11.801
	c-1.842-0.788-3.267-2.246-4.012-4.105c-0.745-1.86-0.721-3.898,0.067-5.74c1.216-2.843,3.993-4.55,6.905-4.55
	c0.983,0,1.981,0.194,2.94,0.605l27.582,11.801C113.531,166.76,114.956,168.218,115.701,170.078z M330.625,118.832
	c-3.858-1.49-5.785-5.84-4.296-9.698l10.804-27.987c1.147-2.974,3.994-4.8,7.005-4.8c0.896,0,1.808,0.162,2.692,0.503
	c3.858,1.49,5.785,5.84,4.296,9.698l0,0l-10.804,27.987C338.833,118.395,334.481,120.319,330.625,118.832z M385.567,418.441
	c-0.693,1.879-2.077,3.376-3.896,4.215c-1.818,0.84-3.856,0.919-5.736,0.226c-1.879-0.693-3.376-2.077-4.214-3.896c0,0,0,0-0.001,0
	l-12.561-27.245c-1.731-3.755-0.085-8.219,3.67-9.951c1.001-0.461,2.066-0.693,3.137-0.693c0.876,0,1.754,0.155,2.6,0.467
	c1.88,0.693,3.377,2.077,4.216,3.896l10.761,23.342c0.003,0.008,0.007,0.016,0.011,0.023l1.788,3.879
	C386.181,414.525,386.261,416.562,385.567,418.441z M414.487,220.302c-4.091,0.535-7.872-2.364-8.408-6.466
	c-0.259-1.987,0.271-3.955,1.492-5.543c1.222-1.588,2.988-2.605,4.975-2.865l29.747-3.883c1.99-0.258,3.955,0.271,5.543,1.492
	s2.605,2.988,2.865,4.974c0.259,1.986-0.271,3.955-1.492,5.543c-1.222,1.588-2.988,2.605-4.975,2.865L414.487,220.302z"/>
<path d="M190.419,139.7c0.967,0,1.945-0.063,2.928-0.191l29.748-3.883c5.959-0.778,11.259-3.83,14.923-8.594
	s5.253-10.669,4.475-16.629c-1.606-12.302-12.922-21.003-25.223-19.398l-29.748,3.883c-12.302,1.606-21.004,12.921-19.398,25.223
	C169.602,131.429,179.297,139.7,190.419,139.7z M184.49,112.626c1.221-1.588,2.988-2.605,4.974-2.864l29.748-3.883
	c0.33-0.043,0.659-0.064,0.986-0.064c1.643,0,3.232,0.538,4.556,1.556c1.588,1.221,2.605,2.988,2.865,4.975
	c0.259,1.986-0.271,3.955-1.492,5.543s-2.988,2.605-4.974,2.864l-29.748,3.883c-1.985,0.26-3.955-0.271-5.543-1.492
	s-2.605-2.988-2.865-4.975C182.739,116.183,183.269,114.214,184.49,112.626z"/>
<path d="M197.733,457.769c3.83,4.632,9.233,7.496,15.216,8.063c0.72,0.068,1.434,0.102,2.143,0.102
	c7.086,0,13.542-3.352,17.701-8.658c2.052,0.953,4.095,1.91,6.105,2.852c4.592,2.152,9.341,4.377,14.042,6.477
	c0.994,0.444,2.033,0.654,3.055,0.654c2.869,0,5.607-1.655,6.852-4.443c1.689-3.782-0.007-8.217-3.789-9.907
	c-4.577-2.045-9.263-4.241-13.794-6.364c-2.477-1.161-5.007-2.34-7.549-3.515l2.594-27.338c0.568-5.983-1.228-11.829-5.058-16.461
	c-3.829-4.632-9.233-7.496-15.216-8.063c-5.985-0.569-11.829,1.228-16.461,5.057c-4.632,3.83-7.496,9.233-8.063,15.216l-1.485,15.65
	c-6.744-1.499-13.581-2.608-20.245-3.684c-18.126-2.928-35.248-5.693-48.698-15.646c-7.042-5.212-12.633-12.133-17.512-19.362
	l17.933-9.099l0,0c5.36-2.719,9.34-7.363,11.207-13.076c1.867-5.712,1.397-11.81-1.322-17.17c-2.72-5.36-7.363-9.339-13.076-11.206
	c-5.712-1.867-11.811-1.397-17.17,1.322l-18.4,9.336c-0.539-2.401-0.823-4.7-0.853-6.93c-0.063-4.55,0.907-9.282,1.933-14.291
	c0.688-3.357,1.399-6.828,1.833-10.423c1.879-15.495-1.667-31.28-9.982-44.444c-2.999-4.755-6.487-8.966-9.859-13.04
	c-2.209-2.668-4.296-5.188-6.219-7.812c-2.45-3.341-7.142-4.063-10.483-1.615c-3.341,2.449-4.063,7.143-1.615,10.483
	c2.185,2.981,4.513,5.792,6.764,8.51c3.21,3.877,6.243,7.539,8.729,11.479c6.384,10.108,9.218,22.73,7.775,34.636
	c-0.361,2.989-0.98,6.012-1.636,9.213c-1.142,5.572-2.323,11.333-2.237,17.504c0.062,4.695,0.865,9.481,2.423,14.499
	c-7.207,6.656-9.462,17.543-4.809,26.713c3.963,7.811,11.89,12.317,20.102,12.317c1.716,0,3.444-0.197,5.151-0.602
	c5.819,8.868,12.975,18.135,22.402,25.113c16.382,12.122,36.13,15.312,55.229,18.396c7.065,1.141,14.331,2.32,21.249,3.947
	C192.311,447.845,194.087,453.358,197.733,457.769z M81.881,376.204c-1.872-3.688-0.394-8.211,3.294-10.082l26.753-13.574
	c1.085-0.551,2.241-0.811,3.381-0.811c2.737,0,5.38,1.502,6.701,4.105c1.871,3.688,0.394,8.211-3.294,10.082l0,0l-26.753,13.575
	C88.273,381.369,83.752,379.892,81.881,376.204z M213.13,407.787c1.357-1.122,3.026-1.72,4.765-1.72c0.24,0,0.481,0.011,0.723,0.034
	c1.994,0.189,3.795,1.144,5.072,2.688s1.875,3.492,1.686,5.487l-2.834,29.866c-0.391,4.116-4.053,7.147-8.176,6.758
	c-1.994-0.189-3.795-1.144-5.071-2.688c-1.276-1.544-1.875-3.492-1.686-5.487l2.834-29.867
	C210.632,410.864,211.586,409.063,213.13,407.787z"/>
<path d="M396.3,341.794c0.725,0.069,1.446,0.103,2.165,0.103c5.215,0,10.225-1.795,14.296-5.161
	c4.632-3.83,7.496-9.233,8.063-15.216l2.834-29.866l0,0c1.171-12.351-7.924-23.353-20.273-24.524
	c-12.367-1.169-23.354,7.923-24.526,20.274l-2.834,29.866C374.854,329.62,383.948,340.622,396.3,341.794z M390.958,318.686
	l2.834-29.865c0.368-3.877,3.643-6.792,7.461-6.792c0.236,0,0.475,0.011,0.714,0.034c4.117,0.391,7.148,4.059,6.758,8.176l0,0
	l-2.834,29.866c-0.39,4.116-4.049,7.142-8.174,6.758C393.599,326.471,390.567,322.803,390.958,318.686z"/>
<g>
</g>
<g>
</g>
<g>
</g>
<g>
</g>
<g>
</g>
<g>
</g>
<g>
</g>
<g>
</g>
<g>
</g>
<g>
</g>
<g>
</g>
<g>
</g>
<g>
</g>
<g>
</g>
<g>
</g>
</svg>
