<?xml version="1.0" encoding="iso-8859-1"?>
<!-- Generator: Adobe Illustrator 19.0.0, SVG Export Plug-In . SVG Version: 6.00 Build 0)  -->
<svg version="1.1" id="Capa_1" xmlns="http://www.w3.org/2000/svg" xmlns:xlink="http://www.w3.org/1999/xlink" x="0px" y="0px"
	 viewBox="0 0 512 512" style="enable-background:new 0 0 512 512;" xml:space="preserve">
<path style="fill:#FFE17D;" d="M336.161,199.887c0,106.252-31.462,192.387-80.161,192.387s-80.161-86.135-80.161-192.387
	S207.301,7.5,256,7.5S336.161,93.635,336.161,199.887z"/>
<path style="fill:#FFD164;" d="M239.968,199.887c0-80.583,18.109-149.554,48.097-178.196C278.512,12.568,267.765,7.5,256,7.5
	c-48.7,0-80.161,86.135-80.161,192.387S207.3,392.274,256,392.274c11.765,0,22.512-5.068,32.065-14.191
	C258.076,349.441,239.968,280.47,239.968,199.887z"/>
<path style="fill:#AFD755;" d="M245.98,360.878c-13.139-78.547-42.457-176.235-99.438-191.697
	c-32.479-8.813-52.074,13.197-61.041,27.534c-2.296,3.671,1.084,8.205,5.229,6.954c17.58-5.308,50.193-8.863,53.274,36.3
	C153.241,375.382,196.452,472.435,256,472.435L245.98,360.878z"/>
<path style="fill:#D4F582;" d="M268.024,468.423l-24.049,0.004l-2.881,27.062c-0.598,4.784,3.133,9.01,7.954,9.01h13.903
	c4.822,0,8.552-4.226,7.954-9.01L268.024,468.423z"/>
<g>
	<path style="fill:#BEE86E;" d="M365.459,169.181c-120.147,50.747-142.686,292.292-142.686,292.292
		c10.352,7.121,21.465,10.963,33.227,10.963c59.548,0,102.759-97.053,111.996-232.467c3.252-47.665,39.399-41.065,56.05-35.41
		c3.075,1.044,5.848-2.209,4.306-5.066C420.129,184.254,399.219,154.921,365.459,169.181z"/>
	<path style="fill:#BEE86E;" d="M233.896,328.912c1.131-3.622,2.305-7.264,3.525-10.919c-15.82-67.628-43.969-136.084-90.88-148.813
		c-3.179-0.863-6.198-1.352-9.132-1.66c34.14,19.616,56.795,70.676,71.219,124.425c3.176,11.834,5.849,23.787,8.099,35.822
		C218.43,336.881,231.133,337.762,233.896,328.912z"/>
</g>
<path d="M439.343,205.181c-0.227-0.583-5.691-14.401-17.467-26.612c-16.234-16.835-36.423-22.585-58.382-16.626
	c-6.256,1.698-13.273,4.529-20.838,9.056c-2.857-51.117-11.861-93.453-26.209-122.933C297.112,8.339,272.904,0,256,0
	c-16.989,0-41.312,8.454-60.702,48.726c-14.221,29.537-23.132,71.7-25.963,122.501c-6.637-4.213-13.582-7.318-20.829-9.285
	c-21.961-5.958-42.148-0.209-58.382,16.626c-11.775,12.211-17.24,26.03-17.467,26.612c-1.126,2.89-0.357,6.175,1.935,8.265
	c2.291,2.089,5.632,2.553,8.407,1.166c0.245-0.122,24.917-12,40.136-3.296c7.87,4.501,12.374,14.313,13.387,29.164
	c4.664,68.379,17.746,127.06,37.829,169.699c16.86,35.796,37.868,58.349,61.547,66.413l-2.246,17.968
	c-0.552,4.414,0.82,8.858,3.764,12.193c2.944,3.335,7.184,5.248,11.632,5.248h13.903c4.448,0,8.688-1.913,11.632-5.248
	s4.316-7.779,3.764-12.193l-2.246-17.968c23.68-8.064,44.687-30.617,61.547-66.413c20.083-42.64,33.165-101.32,37.829-169.699
	c1.012-14.832,5.505-24.638,13.355-29.146c12.749-7.322,33.326-0.111,40.167,3.278c2.775,1.387,6.116,0.923,8.407-1.166
	C439.7,211.355,440.469,208.07,439.343,205.181z M214.957,215.403c0.025,4.065,0.075,8.111,0.14,12.143
	c-2.085-4.246-4.235-8.288-6.442-12.143H214.957z M187.639,135.242h29.544c-0.527,8.164-0.963,16.541-1.307,25.081h-30.795
	C185.746,151.654,186.602,143.289,187.639,135.242z M194.973,95.161h25.718c-0.909,8.035-1.716,16.415-2.417,25.081h-28.427
	C191.317,111.421,193.026,103.045,194.973,95.161z M208.813,55.233c0.025-0.052,0.051-0.1,0.076-0.152h17.755
	c-0.61,3.163-1.202,6.453-1.776,9.877c-0.816,4.87-1.584,9.946-2.305,15.203h-23.414C202.004,71.012,205.23,62.675,208.813,55.233z
	 M256,15.301c1.449,1.284,5.748,6.437,10.622,24.78h-21.243C250.252,21.738,254.551,16.585,256,15.301z M270.073,55.081
	c1.039,5.17,2.081,10.977,3.104,17.548c2.233,14.339,4.073,30.388,5.49,47.613h-45.336c0.714-8.682,1.536-17.066,2.461-25.081
	h12.194c4.142,0,7.5-3.358,7.5-7.5s-3.358-7.5-7.5-7.5h-10.279c0.36-2.558,0.73-5.072,1.114-7.533
	c1.023-6.571,2.065-12.378,3.104-17.548h28.148V55.081z M303.174,55.081c3.607,7.476,6.853,15.861,9.725,25.081h-23.461
	c-0.721-5.257-1.49-10.333-2.305-15.203c-0.574-3.424-1.166-6.715-1.776-9.877L303.174,55.081L303.174,55.081z M291.309,95.161
	h25.749c1.942,7.884,3.648,16.256,5.114,25.081h-28.446C293.025,111.576,292.218,103.196,291.309,95.161z M324.379,135.242
	c1.033,8.043,1.879,16.416,2.541,25.081h-30.797c-0.344-8.54-0.78-16.917-1.307-25.081H324.379z M232.223,135.242h47.555
	c0.536,8.161,0.979,16.539,1.329,25.081h-50.213C231.244,151.781,231.687,143.402,232.223,135.242z M281.622,175.323
	c0.228,8.251,0.367,16.627,0.42,25.081h-52.083c0.052-8.454,0.192-16.829,0.42-25.081H281.622z M282.041,215.403
	c-0.052,8.429-0.193,16.83-0.421,25.081h-51.239c-0.228-8.273-0.372-16.643-0.424-25.081H282.041z M263.405,277.347
	c-0.47,1.064-0.932,2.143-1.396,3.217h-26.853c-1.18-4.018-2.393-7.936-3.635-11.762v-0.001c-0.236-4.395-0.442-8.841-0.626-13.318
	h42.843C270.288,262.288,266.84,269.565,263.405,277.347z M255.803,295.564c-3.544,8.966-6.91,18.178-10.068,27.564
	c-2.008-9.589-4.16-18.771-6.444-27.564H255.803z M309.205,200.403h-12.163c-0.052-8.463-0.19-16.834-0.414-25.081h31.235
	c0.1,2.013,0.192,4.039,0.273,6.081C322.033,186.512,315.694,192.764,309.205,200.403z M294.631,40.081h-12.544
	c-1.803-7.293-3.729-13.59-5.763-18.851C283.582,25.903,289.661,32.734,294.631,40.081z M235.652,21.293
	c-2.026,5.248-3.943,11.523-5.739,18.787h-12.496C223.493,31.076,229.705,25.123,235.652,21.293z M184.135,175.323h31.236
	c-0.223,8.246-0.362,16.618-0.414,25.081h-15.899c-4.838-6.735-9.921-12.65-15.243-17.739
	C183.909,180.198,184.014,177.748,184.135,175.323z M187.92,403.787c-19.296-40.969-31.895-97.792-36.434-164.328
	c-1.375-20.168-8.409-34.018-20.904-41.164c-5.977-3.418-13.155-5.144-21.197-5.144c-4.241,0-8.724,0.48-13.396,1.445
	c9.031-11.763,24.847-24.616,48.587-18.177c29.558,8.021,69.423,45.345,91.696,177.512c-8.774,31.445-15.147,63.74-18.392,94.046
	C207.973,438.66,197.731,424.615,187.92,403.787z M263.464,496.42c0.008,0.063,0.029,0.23-0.125,0.405S263.015,497,262.952,497
	h-13.903c-0.063,0-0.233,0-0.387-0.174c-0.154-0.175-0.133-0.342-0.125-0.406l2.09-16.726c1.78,0.154,3.57,0.241,5.374,0.241
	c1.804,0,3.594-0.088,5.374-0.241L263.464,496.42z M381.418,198.294c-12.496,7.146-19.529,20.996-20.904,41.164
	c-4.539,66.536-17.138,123.359-36.434,164.328c-20.238,42.966-42.318,57.07-59.491,60.333c4.81-65.593,23.906-144.572,49.29-203.188
	c1.646-3.801-0.101-8.217-3.902-9.863c-3.803-1.646-8.217,0.101-9.863,3.902c-26.183,60.463-45.829,142.056-50.583,209.499
	c-5.402-0.771-11.34-2.586-17.594-6.059c4.944-56.728,21.765-121.933,45.192-175.005c16.216-36.738,34.427-65.164,53.303-83.746
	c-5.695,7.839-11.329,16.949-16.887,27.331c-0.044,0.081-0.087,0.163-0.127,0.244c-1.853,3.705-0.351,8.21,3.354,10.062
	c1.077,0.539,2.221,0.793,3.348,0.793c2.634,0,5.175-1.393,6.54-3.819c0.029-0.05,0.057-0.102,0.084-0.153
	c16.238-30.349,32.977-48.951,48.406-53.795c17.899-5.621,31.299,4.112,39.76,14.065
	C401.834,191.887,390.298,193.216,381.418,198.294z"/>
<g>
</g>
<g>
</g>
<g>
</g>
<g>
</g>
<g>
</g>
<g>
</g>
<g>
</g>
<g>
</g>
<g>
</g>
<g>
</g>
<g>
</g>
<g>
</g>
<g>
</g>
<g>
</g>
<g>
</g>
</svg>
