<svg id="Capa_1" enable-background="new 0 0 508.41 508.41" height="512" viewBox="0 0 508.41 508.41" width="512" xmlns="http://www.w3.org/2000/svg"><g id="XMLID_55_"><path id="XMLID_1847_" d="m500.172 104.257c-1.264-2.176-3.135-5.394-3.59-6.879.321-2.022 2.752-6.635 4.236-9.452 4.257-8.081 9.555-18.137 6.089-29.148-4.084-12.975-16.133-17.709-24.93-21.167-2.602-1.022-6.51-2.558-7.67-3.506-.948-1.162-2.483-5.069-3.505-7.668-3.456-8.798-8.188-20.846-21.161-24.93-11.01-3.467-21.066 1.83-29.148 6.087-2.819 1.485-7.437 3.918-9.448 4.236-1.484-.454-4.706-2.326-6.885-3.592-7.366-4.28-17.454-10.141-29.284-7.636-10.222 2.167-16.834 10.243-22.146 16.732-2.003 2.446-5.29 6.462-6.909 7.461-.01 0-.021 0-.03 0-1.681 0-5.505-.93-8.098-1.561-8.298-2.019-18.629-4.533-28.795.205-9.332 4.35-14.14 13.389-18.003 20.652-1.42 2.668-3.738 7.028-5.144 8.403-1.717.308-5.809.006-8.582-.199-8.35-.619-18.744-1.385-27.835 4.549-8.617 5.626-12.164 15.166-15.013 22.832-1.024 2.755-2.694 7.248-3.867 8.793-.386.114-1.15.296-2.488.458-18.436 2.217-35.607 10.458-48.353 23.202l-2.146 2.146-148.513 365.181 365.18-148.511 2.146-2.145c12.743-12.743 20.984-29.917 23.203-48.354.16-1.335.342-2.099.456-2.485 1.547-1.173 6.037-2.842 8.792-3.866 7.665-2.849 17.205-6.395 22.831-15.012 5.936-9.09 5.168-19.484 4.551-27.835-.205-2.773-.508-6.865-.199-8.582 1.375-1.406 5.734-3.725 8.403-5.144 7.264-3.863 16.302-8.67 20.652-18.003 4.737-10.164 2.225-20.494.205-28.795-.631-2.594-1.562-6.421-1.561-8.101 1.075-1.709 5.038-4.954 7.462-6.938 6.489-5.313 14.566-11.925 16.733-22.148 2.507-11.826-3.355-21.914-7.636-29.28z" fill="#ffee6e"/><path id="XMLID_814_" d="m496.582 97.378c.321-2.022 2.752-6.635 4.236-9.452 4.257-8.081 9.555-18.137 6.089-29.148-4.084-12.975-16.133-17.709-24.93-21.167-2.602-1.022-6.51-2.558-7.67-3.506 0 0 0-.001-.001-.001l-445.352 445.351v.001l365.18-148.511 2.146-2.145c12.743-12.743 20.984-29.917 23.203-48.354.16-1.335.342-2.099.456-2.485 1.547-1.173 6.037-2.842 8.792-3.866 7.665-2.849 17.205-6.395 22.831-15.012 5.936-9.09 5.168-19.484 4.551-27.835-.205-2.773-.508-6.865-.199-8.582 1.375-1.406 5.734-3.725 8.403-5.144 7.264-3.863 16.302-8.67 20.652-18.003 4.737-10.164 2.225-20.494.205-28.795-.631-2.594-1.562-6.421-1.561-8.101 1.075-1.709 5.038-4.954 7.462-6.938 6.489-5.313 14.566-11.925 16.733-22.148 2.507-11.826-3.355-21.915-7.637-29.28-1.263-2.176-3.134-5.394-3.589-6.879z" fill="#ffda45"/><path id="XMLID_818_" d="m17.302 468.295h51.838v15h-51.838z" fill="#82cd64" transform="matrix(.707 -.707 .707 .707 -323.778 169.918)"/><path id="XMLID_450_" d="m186.802 71.398c-1.811 1.421-44.853 35.376-89.476 85.859-60.973 68.978-93.618 132.751-97.03 189.547-2.656 44.206 12.6 83.223 45.344 115.967l10.606 10.607 10.606-10.607c33.472-33.472 61.229-71.885 82.502-114.171 21.272-42.287 35.568-87.472 42.49-134.299l24.56-166.133z" fill="#b4eb91"/><path d="m294.11 316.565c-46.827 6.923-92.012 21.219-134.299 42.491s-80.7 49.03-114.172 82.502l-36.655 36.655 21.213 21.213 26.485-26.485c27.826 23.566 59.741 35.469 95.17 35.469 3.221 0 6.477-.099 9.754-.295 56.797-3.413 120.569-36.059 189.548-97.031 50.482-44.624 84.438-87.666 85.858-89.476l23.23-29.602z" fill="#82cd64"/><path id="XMLID_1820_" d="m250.96 288.981c-3.839 0-7.678-1.464-10.606-4.394l-18.15-18.15c-5.858-5.858-5.858-15.355 0-21.213 5.857-5.858 15.355-5.858 21.213 0l18.15 18.15c5.858 5.858 5.858 15.355 0 21.213-2.93 2.93-6.768 4.394-10.607 4.394z" fill="#ffda45"/><path id="XMLID_1819_" d="m376.764 212.674c-3.839 0-7.678-1.464-10.606-4.394l-18.15-18.15c-5.858-5.858-5.858-15.355 0-21.213 5.857-5.858 15.355-5.858 21.213 0l18.15 18.15c5.858 5.858 5.858 15.355 0 21.213-2.929 2.929-6.768 4.394-10.607 4.394z" fill="#ffb13b"/><path id="XMLID_1818_" d="m283.219 207.224c-3.839 0-7.678-1.464-10.606-4.394l-18.15-18.15c-5.858-5.858-5.858-15.355 0-21.213 5.857-5.858 15.355-5.858 21.213 0l18.15 18.15c5.858 5.858 5.858 15.355 0 21.213-2.929 2.93-6.768 4.394-10.607 4.394z" fill="#ffda45"/><path id="XMLID_1817_" d="m415.505 124.436c-3.839 0-7.678-1.464-10.606-4.394l-18.15-18.15c-5.858-5.858-5.858-15.355 0-21.213 5.857-5.858 15.355-5.858 21.213 0l18.15 18.15c5.858 5.858 5.858 15.355 0 21.213-2.93 2.93-6.768 4.394-10.607 4.394z" fill="#ffda45"/><g fill="#ffb13b"><path id="XMLID_815_" d="m253.301 255.109-21.213 21.213 8.266 8.266c2.929 2.929 6.768 4.394 10.606 4.394s7.678-1.464 10.606-4.394c5.858-5.858 5.858-15.355 0-21.213z"/><path id="XMLID_823_" d="m417.846 90.564-21.213 21.213 8.265 8.265c2.929 2.929 6.768 4.394 10.606 4.394s7.678-1.464 10.606-4.394c5.858-5.858 5.858-15.355 0-21.213z"/></g></g></svg>