<svg height="512pt" viewBox="0 -65 512.00025 512" width="512pt" xmlns="http://www.w3.org/2000/svg"><path d="m510.980469 316.417969c-25.148438-129.289063-156.105469-207.429688-279.539063-167.269531-36.863281 11.972656-68.839844 33.59375-93.433594 61.105468-28.371093 10.558594-102.210937 47.488282-131.355468 137.828125-5.398438 16.707031 7.121094 33.824219 24.6875 33.8125l30.195312-.019531 394.6875-.292969c-.148437 0-.292968-.011719-.441406-.015625 34.738281 1.121094 61.894531-30.722656 55.199219-65.148437zm0 0" fill="#ffc14f"/><path d="m488.289062 371.964844-.070312.050781c-5.367188 3.683594-11.105469 6.273437-16.992188 7.820313-21.792968 5.730468-45.441406-2.734376-58.636718-21.660157-1.421875-2.015625-2.714844-4.15625-3.855469-6.402343-.5625-1.082032-1.09375-2.183594-1.582031-3.320313-62.316406-143.390625-183.1875-149.734375-226.371094-147.070313-17.53125 1.078126-28.386719 5.332032-42.675781 8.753907 24.613281-27.578125 56.410156-48.996094 93.335937-60.988281 6.519532-2.121094 13.195313-3.949219 20.015625-5.457032 117.8125-26.101562 235.804688 50.796875 259.523438 172.726563 4.160156 21.390625-4.730469 43.214843-22.691407 55.546875zm0 0" fill="#ffb52d"/><path d="m478.777344 345.71875c-.582032 3.671875-3.703125 18.769531-7.550782 34.117188-21.792968 5.730468-45.4375-2.734376-58.632812-21.660157-1.269531-2.160156-2.558594-4.304687-3.859375-6.402343-.5625-1.082032-1.09375-2.183594-1.582031-3.320313-62.316406-143.390625-183.1875-149.734375-226.371094-147.070313-17.53125 1.078126-28.386719 5.332032-42.671875 8.753907 24.609375-27.578125 56.410156-48.996094 93.332031-60.988281 15.328125 4.929687 31.0625 15.871093 47.03125 18.375 21.410156 3.359374 47.066406-7.859376 65.894532-.570313 19.933593 7.703125 27.703124 32.078125 43.820312 43.277344 16.9375 11.769531 46.730469 13.914062 58.40625 28.511719 12.105469 15.148437 2.132812 37.902343 7.394531 54.914062 5.238281 16.949219 27.542969 34.4375 24.789063 52.0625zm0 0" fill="#f29500"/><path d="m390.394531 120.078125c0 66.316406-53.761719 120.078125-120.078125 120.078125-66.320312 0-120.078125-53.761719-120.078125-120.078125s53.757813-120.078125 120.078125-120.078125c66.316406 0 120.078125 53.761719 120.078125 120.078125zm0 0" fill="#f44545"/><path d="m348.285156 159.03125c-12.457031 24.933594-35.355468 41.957031-62.351562 46.8125-3.015625.550781-6.070313.933594-9.167969 1.175781-15.597656 1.171875-31.300781-1.925781-45.402344-8.976562-20.824219-10.398438-36.351562-28.292969-43.722656-50.367188-7.363281-22.085937-5.699219-45.710937 4.710937-66.539062 13.839844-27.710938 40.574219-45.660157 71.519532-47.988281 7.371094-.550782 14.765625-.15625 22 1.175781 8.070312 1.464843 15.953125 4.074219 23.386718 7.785156 42.996094 21.472656 60.5 73.921875 39.027344 116.921875zm0 0" fill="#c42d2d"/><path d="m348.285156 159.03125c-12.457031 24.933594-35.355468 41.957031-62.351562 46.8125-8.066406-1.46875-15.9375-4.085938-23.375-7.800781-20.828125-10.398438-36.351563-28.292969-43.722656-50.367188-7.363282-22.085937-5.699219-45.710937 4.710937-66.539062 12.445313-24.925781 35.332031-41.957031 62.324219-46.8125 8.070312 1.464843 15.953125 4.074219 23.386718 7.785156 42.996094 21.472656 60.5 73.921875 39.027344 116.921875zm0 0" fill="#d63030"/><g fill="#f44545"><path d="m330.640625 128.457031c0 6.84375-5.546875 12.390625-12.386719 12.390625-6.84375 0-12.390625-5.546875-12.390625-12.390625s5.546875-12.390625 12.390625-12.390625c6.839844 0 12.386719 5.546875 12.386719 12.390625zm0 0"/><path d="m312.363281 84.433594c0 6.84375-5.546875 12.390625-12.390625 12.390625s-12.390625-5.546875-12.390625-12.390625c0-6.839844 5.546875-12.386719 12.390625-12.386719s12.390625 5.546875 12.390625 12.386719zm0 0"/><path d="m273.441406 74.070312c0 6.84375-5.546875 12.390626-12.390625 12.390626s-12.390625-5.546876-12.390625-12.390626 5.546875-12.390624 12.390625-12.390624 12.390625 5.546874 12.390625 12.390624zm0 0"/><path d="m245.570312 155.496094c0 66.316406-53.761718 120.078125-120.078124 120.078125-66.316407 0-120.078126-53.761719-120.078126-120.078125s53.761719-120.078125 120.078126-120.078125c66.316406 0 120.078124 53.761719 120.078124 120.078125zm0 0"/></g><path d="m203.460938 194.445312c-12.457032 24.933594-35.355469 41.957032-62.347657 46.8125-3.015625.550782-6.074219.9375-9.171875 1.175782-15.597656 1.175781-31.296875-1.921875-45.398437-8.972656-20.828125-10.398438-36.351563-28.296876-43.726563-50.371094-7.359375-22.085938-5.695312-45.710938 4.710938-66.539063 13.839844-27.710937 40.574218-45.65625 71.519531-47.988281 7.375-.550781 14.765625-.15625 22.003906 1.175781 8.070313 1.464844 15.949219 4.078125 23.386719 7.789063 42.996094 21.472656 60.496094 73.921875 39.023438 116.917968zm0 0" fill="#c42d2d"/><path d="m203.460938 194.445312c-12.457032 24.933594-35.355469 41.957032-62.347657 46.8125-8.070312-1.464843-15.941406-4.085937-23.375-7.796874-20.828125-10.398438-36.351562-28.296876-43.726562-50.371094-7.359375-22.085938-5.699219-45.710938 4.710937-66.539063 12.445313-24.925781 35.332032-41.957031 62.328125-46.8125 8.070313 1.464844 15.949219 4.078125 23.386719 7.789063 42.996094 21.472656 60.496094 73.921875 39.023438 116.917968zm0 0" fill="#d63030"/><path d="m173.835938 123.09375c0 6.84375-5.546876 12.390625-12.386719 12.390625-6.84375 0-12.390625-5.546875-12.390625-12.390625s5.546875-12.390625 12.390625-12.390625c6.839843 0 12.386719 5.546875 12.386719 12.390625zm0 0" fill="#f44545"/><path d="m128.351562 108.84375c0 6.84375-5.546874 12.390625-12.390624 12.390625s-12.390626-5.546875-12.390626-12.390625 5.546876-12.390625 12.390626-12.390625 12.390624 5.546875 12.390624 12.390625zm0 0" fill="#f44545"/><path d="m95.414062 132.027344c0 6.84375-5.546874 12.390625-12.390624 12.390625-6.839844 0-12.386719-5.546875-12.386719-12.390625s5.546875-12.390625 12.386719-12.390625c6.84375 0 12.390624 5.546875 12.390624 12.390625zm0 0" fill="#f44545"/><path d="m445.792969 345.71875c-1.207031 7.644531-6.882813 13.820312-13.757813 19.550781-2.285156 1.890625-4.699218 3.742188-7.121094 5.574219-7.496093-5.535156-13.726562-13.09375-17.769531-22.390625-76.710937-176.519531-242.167969-145.355469-242.167969-145.355469-65.425781 14.496094-117.21875 57.617188-145.417968 113.558594-2.558594-4.105469-5.574219-8.246094-8.457032-12.40625-6.519531-9.398438-12.363281-18.902344-10.863281-28.449219 2.765625-17.625 29.351563-27.441406 39.53125-41.964843 10.222657-14.589844 7.6875-39.296876 23.867188-50.007813 15.574219-10.316406 44.585937-3.234375 64.3125-9.253906 18.777343-5.71875 33.648437-26.546875 54.976562-27.785157 20.140625-1.152343 41.144531 17.375 62.566407 20.734376 21.410156 3.359374 47.0625-7.859376 65.894531-.570313 19.933593 7.703125 27.699219 32.078125 43.816406 43.277344 16.9375 11.769531 46.730469 13.914062 58.40625 28.511719 12.105469 15.148437 2.132813 37.902343 7.394531 54.914062 5.242188 16.949219 27.546875 34.4375 24.789063 52.0625zm0 0" fill="#1ed688"/><path d="m432.035156 365.269531c-2.285156 1.890625-4.699218 3.742188-7.121094 5.574219-7.496093-5.535156-13.726562-13.09375-17.769531-22.390625-76.710937-176.519531-242.167969-145.355469-242.167969-145.355469-65.425781 14.496094-117.21875 57.617188-145.417968 113.558594-2.558594-4.105469-5.574219-8.246094-8.457032-12.40625 3.816407-17.1875 27.847657-27.160156 37.226563-41.695312 9.691406-15.046876 7.289063-40.53125 22.636719-51.574219 14.789062-10.640625 42.3125-3.339844 61.027344-9.546875 17.824218-5.90625 31.925781-27.378906 52.160156-28.660156 19.121094-1.195313 39.042968 17.917968 59.375 21.390624 20.304687 3.453126 44.660156-8.109374 62.523437-.601562 18.914063 7.953125 26.285157 33.097656 41.582031 44.648438 16.066407 12.136718 44.328126 14.351562 55.414063 29.40625 11.488281 15.621093 2.027344 39.089843 7.019531 56.640624 3.804688 13.402344 17.132813 27.140626 21.96875 41.011719zm0 0" fill="#1ab975"/><path d="m456.222656 381.582031-394.6875.292969-30.195312.019531c-17.566406.011719-30.085938-17.105469-24.6875-33.8125 22.867187-70.875 81.097656-127.878906 158.324218-144.984375 0 0 18.082032-3.410156 45.066407-1.582031 54.644531 3.671875 145.753906 28.78125 197.109375 146.9375 8.953125 20.601563 28.605468 32.640625 49.070312 33.128906zm0 0" fill="#ffc14f"/><path d="m457.523438 381.605469-394.992188.289062c-.332031 0-.664062-.007812-.996094-.019531-17.03125-.625-28.980468-17.40625-23.6875-33.792969 22.867188-70.875 81.097656-127.878906 158.324219-144.984375 0 0 5.085937-.957031 13.871094-1.582031 54.644531 3.671875 145.753906 28.78125 197.109375 146.9375 8.953125 20.601563 28.605468 32.640625 49.070312 33.128906.0625.011719.125.011719.1875 0 .375.023438.738282.023438 1.113282.023438zm0 0" fill="#ffcd71"/><path d="m174.664062 292.179688c-15.648437 0-28.378906-12.730469-28.378906-28.378907 0-4.308593 3.492188-7.796875 7.800782-7.796875 4.308593 0 7.796874 3.488282 7.796874 7.796875 0 7.046875 5.734376 12.78125 12.78125 12.78125 7.042969 0 12.777344-5.734375 12.777344-12.78125 0-4.308593 3.492188-7.796875 7.796875-7.796875 4.308594 0 7.800781 3.488282 7.800781 7.796875 0 15.648438-12.730468 28.378907-28.375 28.378907zm0 0" fill="#ffb52d"/><path d="m95.386719 334.683594c-15.648438 0-28.378907-12.730469-28.378907-28.378906 0-4.304688 3.492188-7.796876 7.800782-7.796876s7.796875 3.492188 7.796875 7.796876c0 7.046874 5.734375 12.78125 12.78125 12.78125s12.777343-5.734376 12.777343-12.78125c0-4.304688 3.492188-7.796876 7.800782-7.796876s7.796875 3.492188 7.796875 7.796876c0 15.648437-12.730469 28.378906-28.375 28.378906zm0 0" fill="#ffb52d"/><path d="m279.265625 349.320312c-15.648437 0-28.375-12.730468-28.375-28.378906 0-4.308594 3.488281-7.796875 7.796875-7.796875s7.796875 3.488281 7.796875 7.796875c0 7.046875 5.734375 12.78125 12.78125 12.78125s12.777344-5.734375 12.777344-12.78125c0-4.308594 3.492187-7.796875 7.800781-7.796875 4.304688 0 7.796875 3.488281 7.796875 7.796875 0 15.648438-12.730469 28.378906-28.375 28.378906zm0 0" fill="#ffb52d"/></svg>