<svg xmlns="http://www.w3.org/2000/svg" height="512pt" version="1.1" viewBox="0 -91 512 512" width="512pt">
<g id="surface1">
<path d="M 87.40625 230.433594 C 70.238281 219.242188 60 200.390625 60 180 L 60 176.703125 C 60 169.964844 55.503906 164.046875 49 162.246094 C 42.523438 160.429688 35.597656 163.183594 32.140625 168.984375 C 11.117188 204.023438 0 244.144531 0 285 L 0 300 C 0 316.566406 13.429688 330 30 330 L 45 330 C 69.8125 330 90 309.8125 90 285 C 90 272.007812 91.316406 258.882812 93.910156 245.960938 C 95.113281 239.941406 92.535156 233.789062 87.40625 230.433594 Z M 87.40625 230.433594 " style=" stroke:none;fill-rule:nonzero;fill:rgb(100%,62.352941%,0%);fill-opacity:1;" />
<path d="M 159.902344 131.394531 C 157.191406 131.394531 154.46875 130.664062 152.050781 129.167969 C 138.484375 120.863281 122.34375 118.488281 107.738281 121.242188 C 103.371094 122.0625 98.859375 120.890625 95.402344 118.019531 C 91.976562 115.179688 90 110.945312 90 106.492188 C 90 63.648438 123.648438 30 165 30 C 182.125 30 198.207031 35.582031 211.523438 46.15625 C 216.988281 50.476562 218.746094 57.992188 215.785156 64.292969 C 211.992188 72.335938 210 81.226562 210 90 C 210 90.953125 209.941406 91.742188 210.101562 92.695312 C 211.1875 99.375 207.65625 105.964844 201.476562 108.765625 C 190.414062 113.773438 179.78125 120.175781 168.941406 128.363281 C 166.289062 130.371094 163.097656 131.394531 159.902344 131.394531 Z M 159.902344 131.394531 " style=" stroke:none;fill-rule:nonzero;fill:rgb(56.470588%,89.019608%,41.568627%);fill-opacity:1;" />
<path d="M 430.699219 146.703125 C 426.964844 146.703125 423.316406 145.296875 420.519531 142.71875 C 397.945312 121.859375 369.964844 106.421875 341.488281 98.101562 C 335.46875 96.328125 331.175781 90.996094 330.734375 84.726562 C 330.265625 77.769531 328.4375 70.941406 325.285156 64.425781 C 322.238281 58.109375 323.96875 50.523438 329.476562 46.15625 C 342.792969 35.582031 358.875 30 376 30 C 417.351562 30 452 63.648438 452 105 C 452 116.527344 449.273438 128.070312 444.117188 138.398438 C 442.011719 142.632812 438.039062 145.605469 433.394531 146.453125 C 432.503906 146.632812 431.59375 146.703125 430.699219 146.703125 Z M 430.699219 146.703125 " style=" stroke:none;fill-rule:nonzero;fill:rgb(43.921569%,85.490196%,25.098039%);fill-opacity:1;" />
<path d="M 352.300781 51.597656 C 337.597656 20.097656 305.5 0 271 0 C 236.5 0 203.402344 20.097656 188.699219 51.597656 C 183 63.601562 180 76.800781 180 90 C 180 92.699219 180 94.800781 180.601562 97.5 C 181.199219 102.300781 184.199219 106.199219 188.402344 108.300781 C 190.5 109.5 192.898438 110.101562 195.300781 110.101562 C 197.398438 110.101562 199.800781 109.5 201.898438 108.601562 C 223.199219 98.398438 247.300781 92.699219 271 91.199219 C 295 88.796875 319 91.199219 341.5 98.097656 C 346 99.597656 351.097656 98.398438 355 95.398438 C 358.898438 92.398438 361 87.597656 360.699219 82.800781 C 359.800781 72 357.101562 61.5 352.300781 51.597656 Z M 352.300781 51.597656 " style=" stroke:none;fill-rule:nonzero;fill:rgb(100%,42.352941%,42.352941%);fill-opacity:1;" />
<path d="M 360.699219 82.800781 C 361 87.597656 358.898438 92.398438 355 95.398438 C 351.101562 98.398438 346 99.597656 341.5 98.097656 C 319 91.199219 295 88.796875 271 91.199219 L 271 0 C 305.503906 0 337.601562 20.097656 352.300781 51.597656 C 357.101562 61.5 359.800781 72 360.699219 82.800781 Z M 360.699219 82.800781 " style=" stroke:none;fill-rule:nonzero;fill:rgb(100%,28.627451%,28.627451%);fill-opacity:1;" />
<path d="M 79.203125 258.003906 C 76.332031 258.003906 73.476562 257.183594 71 255.570312 C 45.335938 238.8125 30 210.558594 30 180 L 30 176.703125 C 31.785156 134.867188 61.363281 100.210938 101.953125 91.800781 C 124.804688 87.554688 147.804688 91.378906 167.753906 103.621094 C 172.003906 106.230469 174.667969 110.769531 174.886719 115.738281 C 175.109375 120.71875 172.835938 125.464844 168.851562 128.4375 C 130.09375 157.222656 103.476562 198.96875 93.898438 245.992188 C 92.914062 250.867188 89.574219 254.925781 84.992188 256.84375 C 83.128906 257.621094 81.167969 258.003906 79.203125 258.003906 Z M 79.203125 258.003906 " style=" stroke:none;fill-rule:nonzero;fill:rgb(100%,42.352941%,42.352941%);fill-opacity:1;" />
<path d="M 512 285 C 512 309.898438 491.902344 330 467 330 L 30 330 C 46.5 330 60 316.5 60 300 L 60 285 C 60 270 61.5 255 64.5 240 C 75.601562 185.699219 106.199219 137.398438 150.902344 104.398438 C 163.5 94.800781 176.101562 87.300781 189 81.296875 C 213.902344 69.300781 242.800781 62.398438 271 60.597656 C 297.699219 58.796875 324.699219 61.800781 349.898438 69.300781 C 382.898438 78.898438 414.800781 96.597656 440.898438 120.597656 C 486.800781 163.800781 512 222.300781 512 285 Z M 512 285 " style=" stroke:none;fill-rule:nonzero;fill:rgb(100%,83.137255%,0%);fill-opacity:1;" />
<path d="M 512 285 C 512 309.898438 491.902344 330 467 330 L 271 330 L 271 60.597656 C 297.699219 58.800781 324.699219 61.800781 349.898438 69.300781 C 382.898438 78.898438 414.800781 96.597656 440.898438 120.597656 C 486.800781 163.800781 512 222.300781 512 285 Z M 512 285 " style=" stroke:none;fill-rule:nonzero;fill:rgb(99.215686%,74.901961%,0%);fill-opacity:1;" />
<path d="M 391 225 C 391 233.285156 384.285156 240 376 240 C 367.714844 240 361 233.285156 361 225 C 361 216.714844 367.714844 210 376 210 C 384.285156 210 391 216.714844 391 225 Z M 391 225 " style=" stroke:none;fill-rule:nonzero;fill:rgb(100%,47.058824%,8.627451%);fill-opacity:1;" />
<path d="M 331 195 C 331 203.285156 324.285156 210 316 210 C 307.714844 210 301 203.285156 301 195 C 301 186.714844 307.714844 180 316 180 C 324.285156 180 331 186.714844 331 195 Z M 331 195 " style=" stroke:none;fill-rule:nonzero;fill:rgb(100%,47.058824%,8.627451%);fill-opacity:1;" />
<path d="M 452 255 C 452 263.285156 445.285156 270 437 270 C 428.714844 270 422 263.285156 422 255 C 422 246.714844 428.714844 240 437 240 C 445.285156 240 452 246.714844 452 255 Z M 452 255 " style=" stroke:none;fill-rule:nonzero;fill:rgb(100%,47.058824%,8.627451%);fill-opacity:1;" />
<path d="M 301 255 C 301 263.285156 294.285156 270 286 270 C 277.714844 270 271 263.285156 271 255 C 271 246.714844 277.714844 240 286 240 C 294.285156 240 301 246.714844 301 255 Z M 301 255 " style=" stroke:none;fill-rule:nonzero;fill:rgb(100%,47.058824%,8.627451%);fill-opacity:1;" />
</g>
</svg>