<?xml version="1.0" encoding="iso-8859-1"?>
<!-- Generator: Adobe Illustrator 19.0.0, SVG Export Plug-In . SVG Version: 6.00 Build 0)  -->
<svg version="1.1" id="Capa_1" xmlns="http://www.w3.org/2000/svg" xmlns:xlink="http://www.w3.org/1999/xlink" x="0px" y="0px"
	 viewBox="0 0 512 512" style="enable-background:new 0 0 512 512;" xml:space="preserve">
<path style="fill:#FFA733;" d="M413.112,443.371V331.482c0-110.493-90.403-200.896-200.896-200.896l0,0
	c-110.493,0-200.896,90.403-200.896,200.896v68.445c0,23.993,19.45,43.444,43.444,43.444L413.112,443.371L413.112,443.371z"/>
<path style="fill:#AA6100;" d="M145.559,92.132c-21.066-1.603-39.761,9.164-49.603,25.794c-4.136,6.989-10.966,12.127-18.928,13.724
	c-9.79,1.964-19.146,6.674-26.838,14.153c-12.194,11.857-17.554,28.089-16.02,43.794c0.852,8.715-2.249,17.329-8.647,23.308
	c-12.375,11.561-19.575,28.588-17.739,47.238c2.595,26.362,23.664,47.735,49.991,50.66c34.269,3.807,136.899-137.276,136.46-166.814
	C193.835,116.97,172.503,94.183,145.559,92.132z"/>
<path style="fill:#CC7400;" d="M145.559,92.132c-21.066-1.603-39.761,9.164-49.603,25.794c-4.136,6.989-10.966,12.127-18.928,13.724
	c-6.709,1.346-13.214,3.982-19.119,7.915c-10.926,35.463-11.575,88.324,43.52,143.479c42.1-41.824,93.116-118.21,92.807-139.055
	C193.835,116.97,172.503,94.183,145.559,92.132z"/>
<circle style="fill:#D80027;" cx="73.549" cy="394.838" r="48.533"/>
<path style="fill:#C70024;" d="M73.546,346.305c-22.148,0-40.817,14.841-46.639,35.117c5.822,20.275,24.492,35.116,46.639,35.116
	s40.817-14.841,46.64-35.116C114.363,361.146,95.694,346.305,73.546,346.305z"/>
<circle style="fill:#FF3F62;" cx="73.549" cy="330.198" r="48.533"/>
<path style="fill:#FF0C38;" d="M25.013,328.329c7.849,16.236,24.475,27.437,43.719,27.437c26.179,0,47.504-20.73,48.486-46.668
	c-7.849-16.236-24.475-27.437-43.719-27.437C47.321,281.661,25.995,302.39,25.013,328.329z"/>
<path style="fill:#91DC5A;" d="M154.406,443.371h193.589c4.301-5.89,8.775-11.392,14.003-15.361
	c16.651-12.639,46.112-13.674,58.182-30.972c11.853-16.985,2.767-44.969,9.099-65.309c6.08-19.532,29.685-37.261,29.685-58.869
	s-23.605-39.337-29.685-58.868c-6.332-20.34,2.754-48.323-9.098-65.308c-12.071-17.298-41.532-18.334-58.182-30.973
	c-16.627-12.622-25.628-40.75-45.67-47.539c-19.438-6.585-43.547,10.095-65.129,10.095s-45.69-16.68-65.128-10.096
	c-20.041,6.789-29.042,34.917-45.669,47.538c-16.65,12.639-46.111,13.674-58.182,30.972c-11.853,16.985-2.767,44.969-9.099,65.309
	c-6.08,19.532-29.686,37.261-29.686,58.869c0,21.608,23.605,39.337,29.685,58.868c6.332,20.34-2.754,48.323,9.098,65.308
	c12.071,17.298,41.532,18.334,58.182,30.973C145.632,431.978,150.105,437.481,154.406,443.371z"/>
<path style="fill:#B6E892;" d="M347.995,443.371c4.301-5.89,8.775-11.392,14.003-15.361c16.651-12.638,46.112-13.674,58.182-30.972
	c11.853-16.985,2.767-44.969,9.099-65.309c6.08-19.532,29.686-37.261,29.686-58.869s-23.605-39.337-29.686-58.868
	c-6.332-20.34,2.754-48.323-9.098-65.308c-12.071-17.298-41.532-18.334-58.182-30.973c-16.627-12.622-25.629-40.75-45.67-47.539
	c-19.438-6.585-43.547,10.095-65.129,10.095s-45.69-16.68-65.128-10.096c-17.452,5.912-26.534,28.003-39.569,41.948
	c-2.42,21.938-7.577,44.911-18.217,58.271c-24.91,31.278-25.207,91.356,10.109,119.929c0.651,0.542,30.872,100.825,46.578,153.052
	H347.995z"/>
<path style="fill:#FFC477;" d="M303.604,130.586L303.604,130.586c-110.493,0-200.896,90.403-200.896,200.896v75.61
	c-0.577,10.031-6.084,36.279-47.944,36.279h385.674c35.381,0,64.062-28.682,64.062-64.062v-47.827
	C504.5,220.989,414.097,130.586,303.604,130.586z"/>
<g>
	<path style="fill:#FFB655;" d="M217.949,443.371c41.86,0,47.367-26.248,47.944-36.279v-75.61
		c0-81.485,49.171-152.036,119.304-183.468c-24.966-11.189-52.584-17.428-81.592-17.428l0,0
		c-110.493,0-200.896,90.403-200.896,200.896v75.61c-0.578,10.031-6.084,36.279-47.944,36.279h385.674c0.001,0,0.002,0,0.003,0
		H217.949z"/>
	<circle style="fill:#FFB655;" cx="341.929" cy="311.168" r="15"/>
	<circle style="fill:#FFB655;" cx="433.129" cy="286.978" r="15"/>
	<circle style="fill:#FFB655;" cx="406.879" cy="357.038" r="15"/>
	<circle style="fill:#FFB655;" cx="391.879" cy="311.118" r="7.5"/>
	<circle style="fill:#FFB655;" cx="349.429" cy="372.038" r="7.5"/>
	<circle style="fill:#FFB655;" cx="371.929" cy="255.998" r="7.5"/>
	<circle style="fill:#FFB655;" cx="462.929" cy="346.308" r="7.5"/>
</g>
<path d="M450.79,184.296c-5.375-5.375-10.995-10.409-16.821-15.116c-0.567-7.807-2.198-16.992-7.637-24.788
	c-8.396-12.034-22.637-17.068-36.408-21.938c-8.924-3.154-17.354-6.135-23.39-10.717c-2.475-1.879-5.009-4.391-7.747-7.682
	c-2.65-3.185-7.38-3.616-10.563-0.967c-3.184,2.649-3.616,7.378-0.967,10.563c3.476,4.176,6.814,7.458,10.207,10.033
	c7.9,5.997,17.741,9.819,27.46,12.912c21.887,6.965,30.342,18.331,30.865,19.428c-33.255-21.439-71.88-32.939-112.186-32.939
	c-49.889,0-98.244,18.091-136.155,50.94c-3.131,2.712-3.47,7.449-0.757,10.579c2.713,3.132,7.449,3.471,10.58,0.757
	c35.186-30.486,80.052-47.276,126.334-47.276c51.436,0,99.94,20.178,136.579,56.816S497,280.045,497,331.48v47.827
	c0,31.188-25.374,56.562-56.563,56.562H98.165c12.44-11.85,12.042-28.635,12.042-28.778v-75.61
	c0-45.361,16.203-89.542,45.625-124.402c2.672-3.165,2.271-7.896-0.894-10.568c-3.166-2.673-7.898-2.272-10.569,0.895
	c-31.703,37.563-49.162,85.179-49.162,134.076v67.789c-2.944-2-5.165-4.131-6.837-6.526c-5.455-7.817-5.35-19.742-5.239-32.367
	c0.092-10.389,0.186-21.131-2.848-30.879c-2.888-9.276-8.939-17.772-14.792-25.989c-7.485-10.509-14.555-20.436-14.555-30.649
	s7.07-20.14,14.555-30.649c5.853-8.217,11.904-16.714,14.792-25.99c3.035-9.748,2.94-20.49,2.849-30.879
	c-0.111-12.625-0.216-24.55,5.239-32.367c5.64-8.082,17.039-12.111,29.106-16.378c9.616-3.4,19.559-6.916,27.46-12.913
	c7.836-5.948,13.876-14.506,19.717-22.782c7.419-10.513,14.427-20.443,23.824-23.626c8.938-3.028,20.333,0.511,32.398,4.256
	c9.876,3.065,20.088,6.236,30.323,6.236c10.234,0,20.447-3.171,30.323-6.236c12.064-3.746,23.46-7.285,32.398-4.256
	c4.784,1.621,9.352,5.124,14.375,11.024c2.687,3.152,7.419,3.532,10.573,0.849c3.153-2.686,3.533-7.419,0.849-10.573
	c-6.855-8.051-13.522-12.979-20.983-15.507c-13.553-4.59-27.84-0.152-41.659,4.137c-9.214,2.86-17.916,5.563-25.876,5.563
	c-7.96,0-16.663-2.702-25.876-5.563c-13.819-4.289-28.108-8.728-41.658-4.137c-14.023,4.75-22.789,17.172-31.267,29.184
	c-5.422,7.683-10.543,14.938-16.531,19.484c-6.037,4.582-14.466,7.563-23.391,10.718c-4.982,1.761-10.022,3.549-14.828,5.678
	c1.786-1.932,3.388-4.067,4.761-6.386c6.439-10.88,17.179-18.631,29.466-21.265c4.05-0.868,6.63-4.854,5.762-8.905
	c-0.868-4.05-4.856-6.639-8.905-5.761c-16.368,3.508-30.667,13.82-39.231,28.291c-3.155,5.33-8.239,9.045-13.949,10.19
	c-11.542,2.315-22.12,7.893-30.591,16.129c-13.425,13.055-20.079,31.243-18.255,49.901c0.638,6.527-1.66,12.759-6.303,17.098
	c-14.75,13.779-22.07,33.263-20.083,53.453c0.897,9.111,3.84,17.883,8.412,25.731c-3.25,14.67-4.912,29.757-4.912,44.874v68.445
	c0,28.09,22.853,50.943,50.943,50.943h18.784h366.89c39.46,0,71.563-32.103,71.563-71.562v-47.827
	C512,276.04,490.261,223.768,450.79,184.296z M23.816,304.313c-1.825,3.508-3.275,7.213-4.322,11.059
	c0.375-4.489,0.924-8.958,1.611-13.4C21.986,302.776,22.889,303.558,23.816,304.313z M18.82,382.828v-40.707
	c1.6,7.354,4.643,14.284,8.954,20.388C23.438,368.632,20.413,375.532,18.82,382.828z M30.643,218.385
	c8.08-7.551,12.086-18.31,10.991-29.518c-1.377-14.094,3.658-27.82,13.783-37.688c10.462-10.197,25.04-12.626,26-12.908
	c-1.962,1.821-3.759,3.844-5.347,6.119c-8.196,11.745-8.065,26.659-7.938,41.083c0.085,9.659,0.165,18.782-2.172,26.288
	c-2.175,6.987-7.281,14.157-12.687,21.747c-8.523,11.968-17.337,24.343-17.337,39.352c0,4.82,0.917,9.366,2.434,13.717
	c-2.094,1.685-4.053,3.5-5.862,5.437c-9.693-8.235-16.021-20.01-17.261-32.605C13.721,243.903,19.333,228.951,30.643,218.385z
	 M65.75,435.118c-18.909-3.653-33.237-20.321-33.237-40.281c0-7.515,2.039-14.762,5.83-21.078c1.247,1.008,2.518,1.998,3.869,2.894
	c5.053,3.351,8.964,0.129,10.413-2.017c2.319-3.432,1.416-8.094-2.017-10.413c-11.331-7.655-18.096-20.376-18.096-34.029
	c0-11.413,4.661-22.066,12.75-29.737c2.499,4.009,5.268,7.904,8.011,11.755c5.406,7.59,10.512,14.76,12.687,21.746
	c2.336,7.506,2.256,16.629,2.171,26.288c-0.127,14.424-0.258,29.338,7.937,41.083c4.755,6.813,11.49,11.258,17.386,14.266
	C90.521,423.853,83.188,432.559,65.75,435.118z"/>
<g>
</g>
<g>
</g>
<g>
</g>
<g>
</g>
<g>
</g>
<g>
</g>
<g>
</g>
<g>
</g>
<g>
</g>
<g>
</g>
<g>
</g>
<g>
</g>
<g>
</g>
<g>
</g>
<g>
</g>
</svg>
