<svg width="72" height="123" viewBox="0 0 72 123" fill="none" xmlns="http://www.w3.org/2000/svg">
<g clip-path="url(#clip0)">
<path fill-rule="evenodd" clip-rule="evenodd" d="M71.5301 27.3C61.8201 54.7 53.6401 75.77 43.8001 91.29C33.8801 106.94 22.3001 116.95 5.87005 122.07C5.59005 122.16 5.49005 122.19 5.37005 122.23C4.10005 122.65 2.40005 123.22 1.09005 122.62C0.290055 122.26 -0.0699454 121.65 0.0100546 120.79C0.0600546 120.23 0.360055 119.58 0.890055 118.85C0.920055 118.81 0.950055 118.77 0.980055 118.74C18.3401 98.83 28.7501 56.6 35.7501 28.22C36.6801 24.46 37.5401 20.95 38.4301 17.47C38.7901 16.05 44.0701 13.71 45.3801 13.28C48.1001 12.38 51.2901 11.8 54.4201 11.69L58.0401 0.57999C58.1701 0.17999 58.5701 -0.0600101 58.9801 -1.01309e-05C60.0001 0.14999 61.3401 0.63999 62.5601 1.38999C63.6201 2.02999 64.6101 2.86999 65.2801 3.83999C66.3 5.31999 66.1901 5.70999 65.8201 7.05999C65.8001 7.09999 65.8001 7.10999 65.7201 7.40999L63.8301 14.41C64.2101 14.85 64.58 15.26 64.9501 15.67C66.6401 17.55 72.41 24.82 71.5301 27.3Z" fill="#39591B"/>
<path fill-rule="evenodd" clip-rule="evenodd" d="M48.55 19.2C34.3801 61.19 21.97 100.79 6.78005 117.87C7.54005 117.68 8.29005 117.37 9.05005 116.92C24.22 107.92 45.76 39.41 52.05 19.81C53.33 20.08 54.58 20.39 55.82 20.75C58.03 21.4 60.18 22.19 62.2701 23.14C51.3301 55.48 40.33 85.96 28.64 99.11C40.75 96.12 60.29 39.11 65.02 24.52C66.53 25.33 67.99 26.24 69.42 27.23C59.85 54.2 51.7701 74.96 42.1 90.21C32.45 105.45 21.2 115.19 5.27005 120.15C5.23005 120.16 5.00005 120.24 4.74005 120.32C3.86005 120.61 2.70005 121 2.05005 120.83C2.12005 120.64 2.27005 120.38 2.51005 120.05C20.18 99.76 30.66 57.26 37.7001 28.71C38.6101 25 39.4701 21.52 40.2201 18.59C43.0801 18.62 45.85 18.82 48.55 19.2Z" fill="#689B2D"/>
<path fill-rule="evenodd" clip-rule="evenodd" d="M62.07 14.41L64.08 6.98C64.09 6.93 64.13 6.81 64.18 6.63C64.39 5.88 64.45 5.66 63.88 4.84C63.35 4.07 62.54 3.4 61.68 2.88001C60.92 2.42 60.13 2.08 59.44 1.88L55.87 12.83C55.76 13.17 55.44 13.42 55.07 13.42C51.94 13.46 48.68 14.03 45.93 14.94C44.25 15.49 42.78 16.17 41.65 16.92C46.78 17.05 51.67 17.77 56.29 19.12C60.87 20.46 65.18 22.41 69.21 25.04C68.1 21.76 65.9 19.29 63.69 16.83C63.2 16.29 62.72 15.75 62.29 15.24C62.08 15.02 61.99 14.72 62.07 14.41Z" fill="#39591B"/>
</g>
<defs>
<clipPath id="clip0">
<rect width="71.62" height="122.88" fill="white"/>
</clipPath>
</defs>
</svg>
